<svg xmlns="http://www.w3.org/2000/svg" viewBox="0 0 1333.33 964.58" shape-rendering="geometricPrecision" text-rendering="geometricPrecision" image-rendering="optimizeQuality" fill-rule="evenodd" clip-rule="evenodd"><path d="M1116.17 964.58v-21.43H503.05c-66.31 0-69.44-132.89 0-132.89h763.58c4.5 0 8.17 3.75 8.17 8.13v116.63c0 4.39-3.74 8.13-8.17 8.13h-36.71v21.43h-113.76zM0 964.58V545.65c0-46.52 23-87.93 58.17-113.42 48.39-35.04 183.39-38.19 234.68-8.55 54.57 31.51 54.41 97.64 101.48 143.67 63.02 61.62 47.16 68.71 133.19 68.71h172.16c153.55 0 70.96 149.27-19.9 144.65H523.14c-75.81 0-82.2 12.15-144.85-29.47l-3.44 213.34H0zM847.99 781.6c-22.15 0-40.11-17.96-40.11-40.12 0-22.15 17.96-40.11 40.11-40.11h271.35l138.15-281.14c9.69-19.81 33.63-28.02 53.44-18.33 19.81 9.69 28.02 33.63 18.33 53.44l-147.62 300.4c-5.75 15.11-20.37 25.86-37.5 25.86H847.99zM278.56 0C384.35 0 470.1 85.75 470.1 191.54c0 105.78-85.75 191.5-191.54 191.5-105.79 0-191.5-85.71-191.5-191.5S172.77 0 278.56 0z"/></svg>